<svg xmlns="http://www.w3.org/2000/svg" id="mainsvg" width="498.28125" height="444" viewBox="-10 -10 332.1875 296"><defs><marker id="arrow" viewBox="0 0 10 10" refX="10" refY="5" markerWidth="6" markerHeight="6" orient="auto-start-reverse"><path d="M 0 0 L 10 5 L 0 10 z"/></marker></defs><g transform="translate(0, 0)"><rect width="61.09375" height="28" stroke="black" fill="white" stroke-width="1" transform="translate(0, 0)" rx="0"/><text fill="black" font-size="80%" font-weight="normal" transform="translate(5, 14)" alignment-baseline="middle"> client A </text></g><g transform="translate(147.546875, 0)"><rect width="49.09375" height="28" stroke="black" fill="white" stroke-width="1" transform="translate(0, 0)" rx="0"/><text fill="black" font-size="80%" font-weight="normal" transform="translate(5, 14)" alignment-baseline="middle"> server </text></g><g transform="translate(251.96875, 0)"><rect width="60.21875" height="28" stroke="black" fill="white" stroke-width="1" transform="translate(0, 0)" rx="0"/><text fill="black" font-size="80%" font-weight="normal" transform="translate(5, 14)" alignment-baseline="middle"> client B </text></g><path d="M 30.546875,64 L 172.09375 64" fill="none" stroke="black" stroke-dasharray="none" stroke-width="1" marker-end="url(#arrow)"/><path d="M 30.546875,96 L 172.09375 96" fill="none" stroke="black" stroke-dasharray="none" stroke-width="1" marker-end="url(#arrow)"/><path d="M 172.09375,128 L 30.546875 128" fill="none" stroke="black" stroke-dasharray="none" stroke-width="1" marker-end="url(#arrow)"/><path d="M 282.078125,160 L 172.09375 160" fill="none" stroke="black" stroke-dasharray="none" stroke-width="1" marker-end="url(#arrow)"/><path d="M 172.09375,192 L 282.078125 192" fill="none" stroke="black" stroke-dasharray="none" stroke-width="1" marker-end="url(#arrow)"/><path d="M 172.09375,224 L 30.546875 224" fill="none" stroke="black" stroke-dasharray="none" stroke-width="1" marker-end="url(#arrow)"/><path d="M 172.09375,256 L 30.546875 256" fill="none" stroke="black" stroke-dasharray="none" stroke-width="1" marker-end="url(#arrow)"/><path d="M 30.546875,28 L 30.546875 276" fill="none" stroke="black" stroke-dasharray="none" stroke-width="1"/><path d="M 172.09375,28 L 172.09375 276" fill="none" stroke="black" stroke-dasharray="none" stroke-width="1"/><path d="M 282.078125,28 L 282.078125 276" fill="none" stroke="black" stroke-dasharray="none" stroke-width="1"/><g transform="translate(75.4453125, 40)"><rect width="51.75" height="20" stroke="none" fill="white" stroke-width="1" transform="translate(0, 0)" rx="5"/><text fill="black" font-size="80%" font-weight="normal" transform="translate(1, 10)" alignment-baseline="middle">connect</text></g><g transform="translate(54.546875, 72)"><rect width="93.546875" height="20" stroke="none" fill="white" stroke-width="1" transform="translate(0, 0)" rx="5"/><text fill="black" font-size="80%" font-weight="normal" transform="translate(1, 10)" alignment-baseline="middle">last entry: 122</text></g><g transform="translate(67.65625, 104)"><rect width="67.328125" height="20" stroke="none" fill="white" stroke-width="1" transform="translate(0, 0)" rx="5"/><text fill="black" font-size="80%" font-weight="normal" transform="translate(1, 10)" alignment-baseline="middle">entry: 123</text></g><g transform="translate(196.09375, 136)"><rect width="61.984375" height="20" stroke="none" fill="white" stroke-width="1" transform="translate(0, 0)" rx="5"/><text fill="black" font-size="80%" font-weight="normal" transform="translate(1, 10)" alignment-baseline="middle">add entry</text></g><g transform="translate(201.859375, 168)"><rect width="50.453125" height="20" stroke="none" fill="white" stroke-width="1" transform="translate(0, 0)" rx="5"/><text fill="black" font-size="80%" font-weight="normal" transform="translate(1, 10)" alignment-baseline="middle">ok: 125</text></g><g transform="translate(67.65625, 200)"><rect width="67.328125" height="20" stroke="none" fill="white" stroke-width="1" transform="translate(0, 0)" rx="5"/><text fill="black" font-size="80%" font-weight="normal" transform="translate(1, 10)" alignment-baseline="middle">entry: 124</text></g><g transform="translate(67.65625, 232)"><rect width="67.328125" height="20" stroke="none" fill="white" stroke-width="1" transform="translate(0, 0)" rx="5"/><text fill="black" font-size="80%" font-weight="normal" transform="translate(1, 10)" alignment-baseline="middle">entry: 125</text></g></svg>