<svg xmlns="http://www.w3.org/2000/svg" id="mainsvg" width="166.3125" height="423" viewBox="-10 -10 110.875 282"><defs><marker id="arrow" viewBox="0 0 10 10" refX="10" refY="5" markerWidth="6" markerHeight="6" orient="auto-start-reverse"><path d="M 0 0 L 10 5 L 0 10 z"/></marker></defs><g transform="translate(0.8828125, 78)"><rect width="89.109375" height="28" stroke="black" fill="white" stroke-width="1" transform="translate(0, 0)" rx="0"/><text fill="black" font-size="100%" font-weight="normal" transform="translate(5, 14)" alignment-baseline="middle"> hash:8fb455 </text></g><g transform="translate(0, 0)"><rect width="90.875" height="28" stroke="black" fill="white" stroke-width="1" transform="translate(0, 0)" rx="0"/><text fill="black" font-size="100%" font-weight="normal" transform="translate(5, 14)" alignment-baseline="middle"> hash:d1a26b </text></g><g transform="translate(0.4453125, 156)"><rect width="89.984375" height="28" stroke="black" fill="white" stroke-width="1" transform="translate(0, 0)" rx="0"/><text fill="black" font-size="100%" font-weight="normal" transform="translate(5, 14)" alignment-baseline="middle"> hash:98d8ca </text></g><g transform="translate(0, 234)"><rect width="90.875" height="28" stroke="black" fill="white" stroke-width="1" transform="translate(0, 0)" rx="0"/><text fill="black" font-size="100%" font-weight="normal" transform="translate(5, 14)" alignment-baseline="middle"> hash:17a017 </text></g><path transform="rotate(0,undefined, undefined)" d="M45.4375,28L45.4375,32.166666666666664C45.4375,36.333333333333336,45.4375,44.666666666666664,45.4375,53C45.4375,61.333333333333336,45.4375,69.66666666666667,45.4375,73.83333333333333L45.4375,78" stroke="black" stroke-dasharray="none" stroke-width="1" fill="none" marker-end="url(#arrow)"/><path transform="rotate(0,undefined, undefined)" d="M45.4375,106L45.4375,110.16666666666667C45.4375,114.33333333333333,45.4375,122.66666666666667,45.4375,131C45.4375,139.33333333333334,45.4375,147.66666666666666,45.4375,151.83333333333334L45.4375,156" stroke="black" stroke-dasharray="none" stroke-width="1" fill="none" marker-end="url(#arrow)"/><path transform="rotate(0,undefined, undefined)" d="M45.4375,184L45.4375,188.16666666666666C45.4375,192.33333333333334,45.4375,200.66666666666666,45.4375,209C45.4375,217.33333333333334,45.4375,225.66666666666666,45.4375,229.83333333333334L45.4375,234" stroke="black" stroke-dasharray="none" stroke-width="1" fill="none" marker-end="url(#arrow)"/></svg>