<svg xmlns="http://www.w3.org/2000/svg" id="mainsvg" width="376.95703125" height="423" viewBox="-10 -10 251.3046875 282"><defs><marker id="arrow" viewBox="0 0 10 10" refX="10" refY="5" markerWidth="6" markerHeight="6" orient="auto-start-reverse"><path d="M 0 0 L 10 5 L 0 10 z"/></marker></defs><g transform="translate(71.09765625, 78)"><rect width="89.109375" height="28" stroke="black" fill="white" stroke-width="1" transform="translate(0, 0)" rx="0"/><text fill="black" font-size="100%" font-weight="normal" transform="translate(5, 14)" alignment-baseline="middle"> hash:8fb455 </text></g><g transform="translate(70.21484375, 0)"><rect width="90.875" height="28" stroke="black" fill="white" stroke-width="1" transform="translate(0, 0)" rx="0"/><text fill="black" font-size="100%" font-weight="normal" transform="translate(5, 14)" alignment-baseline="middle"> hash:d1a26b </text></g><g transform="translate(0.4453125, 156)"><rect width="89.984375" height="28" stroke="black" fill="white" stroke-width="1" transform="translate(0, 0)" rx="0"/><text fill="black" font-size="100%" font-weight="normal" transform="translate(5, 14)" alignment-baseline="middle"> hash:98d8ca </text></g><g transform="translate(140.4296875, 156)"><rect width="90.875" height="28" stroke="black" fill="white" stroke-width="1" transform="translate(0, 0)" rx="0"/><text fill="black" font-size="100%" font-weight="normal" transform="translate(5, 14)" alignment-baseline="middle"> hash:7a1184 </text></g><g transform="translate(0, 234)"><rect width="90.875" height="28" stroke="black" fill="white" stroke-width="1" transform="translate(0, 0)" rx="0"/><text fill="black" font-size="100%" font-weight="normal" transform="translate(5, 14)" alignment-baseline="middle"> hash:17a017 </text></g><path transform="rotate(0,undefined, undefined)" d="M115.65234375,28L115.65234375,32.166666666666664C115.65234375,36.333333333333336,115.65234375,44.666666666666664,115.65234375,53C115.65234375,61.333333333333336,115.65234375,69.66666666666667,115.65234375,73.83333333333333L115.65234375,78" stroke="black" stroke-dasharray="none" stroke-width="1" fill="none" marker-end="url(#arrow)"/><path transform="rotate(0,undefined, undefined)" d="M90.44701522435898,106L82.94542935363249,110.16666666666667C75.44384348290599,114.33333333333333,60.440671741452995,122.66666666666667,52.9390858707265,131C45.4375,139.33333333333334,45.4375,147.66666666666666,45.4375,151.83333333333334L45.4375,156" stroke="black" stroke-dasharray="none" stroke-width="1" fill="none" marker-end="url(#arrow)"/><path transform="rotate(0,undefined, undefined)" d="M140.85767227564102,106L148.35925814636752,110.16666666666667C155.86084401709402,114.33333333333333,170.864015758547,122.66666666666667,178.36560162927353,131C185.8671875,139.33333333333334,185.8671875,147.66666666666666,185.8671875,151.83333333333334L185.8671875,156" stroke="black" stroke-dasharray="none" stroke-width="1" fill="none" marker-end="url(#arrow)"/><path transform="rotate(0,undefined, undefined)" d="M45.4375,184L45.4375,188.16666666666666C45.4375,192.33333333333334,45.4375,200.66666666666666,45.4375,209C45.4375,217.33333333333334,45.4375,225.66666666666666,45.4375,229.83333333333334L45.4375,234" stroke="black" stroke-dasharray="none" stroke-width="1" fill="none" marker-end="url(#arrow)"/></svg>